<?xml version="1.0" encoding="UTF-8"?> <svg xmlns="http://www.w3.org/2000/svg" viewBox="0 0 710.88 152.84"><defs><style>.cls-1{fill:#4d576c;}.cls-2{fill:#76bc21;}</style></defs><g id="Layer_2" data-name="Layer 2"><g id="Layer_1-2" data-name="Layer 1"><path class="cls-1" d="M127.43,133.27V66.46H84.19V86.53l21-.11v34.14l-1.91,1.4c-6.9,5.07-16.66,7.65-29,7.65-15.38,0-28-4.82-37.61-14.31S22.27,92.94,22.19,77.06c0-14.92,4.84-27.36,14.36-37S58.71,25.49,74.11,25.41a63.11,63.11,0,0,1,36.33,11l14.88-16.28C110.88,9,93.68,3.32,74.14,3.32c-20.92,0-38.68,7.17-52.78,21.3S.07,56.46,0,77.27c0,21.24,7.16,39.14,21.3,53.22s31.92,21.24,52.85,21.31c20.56,0,38.47-6.23,53.28-18.53"></path><path class="cls-1" d="M550.88,21.64C539.5,9.41,522.09,3.22,499.16,3.22H443V151.8h56.14c22.93,0,40.34-6.19,51.72-18.41s17.27-31.06,17.27-55.82-5.81-43.63-17.27-55.93m-51.7,108.07h-34V25.52h33.94c30.54,0,46.71,18,46.79,52-.08,34.05-16.25,52.08-46.77,52.16"></path><path class="cls-1" d="M685.45,151.14h25.43L672.65,84.31l5.49-1.78c17.61-5.67,25.8-18.09,25.8-39.1,0-27.82-16.06-40.78-50.55-40.78H589.25V151.14h22.19V85.89h36.23Zm-74-85.34V22.85h49.33c8.64.29,23.23,3.37,23.82,20.72v.25c-.42,13.92-9,21.72-24.18,22h-49Z"></path><path class="cls-2" d="M263.87,37.44a55.35,55.35,0,0,0-8.48-7Z"></path><path class="cls-2" d="M344.68,60.81c-10.32-7.54-21.92-10.57-30.51-8.94L308.48,47l-3.13-2.6-2.53-2.08-3.46-2.87L286.47,28.94l-6.78-5.57-2.29-1.88h0l0,.05-1.63-1.34-.11-.15L265.8,12A75.86,75.86,0,0,0,214.07.77a87.58,87.58,0,0,1,9.67,5,91.21,91.21,0,0,1,12.35,8.88v-.06L242.63,20l12.76,10.5a55.83,55.83,0,0,1,8.48,7l36.79,30.28.71.59c.6,9,7.15,19.58,17.84,27.39C334.63,107,355.05,110,362.1,100.37s-2-28.3-17.42-39.56"></path><path class="cls-2" d="M347.06,147.27a90.3,90.3,0,0,1-12.24-8.78v.06l-6.5-5.31L272,87.08a21.05,21.05,0,0,0-2.14-9.63,25.74,25.74,0,0,0-7-8.83L236.18,46.93a4.76,4.76,0,0,0-3-1.1,3.49,3.49,0,0,0-2.76,1.25c-1.31,1.61-.84,4.13,1,5.65l24.62,20c1.86,1.51,2.6,4.24,1.29,5.85l-.51.62c-1.31,1.61-4.25,1.59-6.11.07L225.4,58.66s0-.09-.08-.11l-.1-.06a3.83,3.83,0,0,0-4.68.8,3.94,3.94,0,0,0,.18,4.93l25.46,20.7c1.86,1.51,2.68,4.14,1.38,5.75l-.42.5c-1.3,1.61-4.18,1.5-6,0L216,70.76a3.91,3.91,0,0,0-5.22.54c-1.3,1.6-.85,4.12,1,5.64l26.68,21.69c6.3,5.12,14.18,6.7,20.84,4.76l3.71,3.15,3.12,2.55,1.93,1.6,4,3.3,12.35,10.09,8.25,6.74A77.4,77.4,0,0,0,303.93,140a75.91,75.91,0,0,0,42.36,12.87,76.71,76.71,0,0,0,10.22-.71,86.87,86.87,0,0,1-9.45-4.86"></path><path class="cls-2" d="M252.11,124.41a55.24,55.24,0,1,1,3.29-93.95L242.64,20l-6.56-5.37v.06a89.89,89.89,0,0,0-12.34-8.88,87.58,87.58,0,0,0-9.67-5,76.41,76.41,0,1,0,55.2,137.72Z"></path><path class="cls-2" d="M346.29,0a76,76,0,0,0-44.58,14.41l17.13,14.07a55.25,55.25,0,1,1-6.62,91.41l-.07.09,16.17,13.26,6.5,5.31v-.06a90.3,90.3,0,0,0,12.24,8.78,86.87,86.87,0,0,0,9.45,4.86A76.41,76.41,0,0,0,346.29,0"></path></g></g></svg> 