<?xml version="1.0" encoding="utf-8"?>
<!-- Generator: Adobe Illustrator 15.0.2, SVG Export Plug-In . SVG Version: 6.00 Build 0)  -->
<!DOCTYPE svg PUBLIC "-//W3C//DTD SVG 1.1//EN" "http://www.w3.org/Graphics/SVG/1.1/DTD/svg11.dtd">
<svg version="1.1" id="Layer_1" xmlns="http://www.w3.org/2000/svg" xmlns:xlink="http://www.w3.org/1999/xlink" x="0px" y="0px"
	 width="792px" height="306px" viewBox="0 0 792 306" enable-background="new 0 0 792 306" xml:space="preserve">
<g>
	<path fill="#007DB1" d="M240.336,113.137c3.054-0.22,3.468-0.436,5.971-0.659c2.5-0.217,4.968-0.41,7.399-0.574
		c2.429-0.165,4.965-0.3,7.607-0.41c2.64-0.108,5.556-0.165,8.754-0.165c7.084,0,14.1,0.547,21.05,1.642
		c6.949,1.097,13.132,3.021,18.55,5.757c5.419,2.74,9.83,6.441,13.235,11.099c3.403,4.66,5.106,10.554,5.106,17.675
		c0,4.277-0.904,8.17-2.707,11.675c-1.81,3.511-4.102,6.634-6.878,9.374c-2.782,2.742-5.941,5.126-9.484,7.154
		c-3.543,2.03-6.984,3.701-10.318,5.013l-3.685,0.988l63.086,72.167c-2.565,0.332-6.809,0.496-11.529,0.496
		c-3.754,0-7.505-0.165-10.071-0.496l-67.465-77.101l-1.185-0.659l1.668-0.329c3.752-0.766,7.71-1.81,11.879-3.125
		c4.168-1.314,11.576-3.042,15.117-5.178c3.547-2.139,7.68-4.715,10.044-7.73c2.359-3.014,3.542-6.659,3.542-10.937
		c0-7.889-2.954-13.753-8.857-17.591c-5.908-3.833-18.594-5.756-28.598-5.756c-2.365,0-4.553,0.056-6.564,0.166
		c-2.018,0.11-6.642,0.273-9.143,0.494V253.38c-1.53,0.107-0.863,0.218-2.74,0.331c-1.876,0.105-3.647,0.162-5.315,0.162
		c-1.667,0-3.476-0.031-5.42-0.083c-1.946-0.054-1.385-0.192-3.051-0.41V113.137z"/>
	<path fill="#007DB1" d="M356.59,194.388c0.213,9.053,2.559,15.688,7.034,19.892c4.473,4.204,11.078,6.306,19.811,6.306
		c7.651,0,14.929-1.348,21.83-4.045c0.861,1.619,1.562,3.586,2.104,5.903c0.538,2.32,0.859,4.611,0.97,6.873
		c-3.557,1.51-7.467,2.641-11.724,3.396c-4.262,0.751-8.976,1.131-14.15,1.131c-7.549,0-14.017-1.049-19.405-3.152
		c-5.393-2.103-9.84-5.067-13.344-8.894c-3.503-3.826-6.064-8.353-7.682-13.583c-1.614-5.23-2.423-10.971-2.423-17.221
		c0-6.146,0.782-11.887,2.345-17.223c1.562-5.338,3.959-9.975,7.198-13.909c3.233-3.934,7.301-7.059,12.207-9.377
		c4.905-2.319,10.696-3.476,17.384-3.476c5.712,0,10.727,0.966,15.039,2.911c4.312,1.939,7.924,4.606,10.837,8.002
		c2.909,3.397,5.118,7.439,6.627,12.129c1.508,4.689,2.266,9.784,2.266,15.281c0,1.512-0.057,3.102-0.164,4.771
		c-0.105,1.675-0.215,3.102-0.322,4.285H356.59z M397.664,182.421c0-3.016-0.406-5.902-1.213-8.65
		c-0.809-2.75-1.994-5.15-3.555-7.197c-1.565-2.045-3.56-3.691-5.985-4.932c-2.425-1.237-5.312-1.861-8.653-1.861
		c-6.577,0-11.617,1.996-15.118,5.984c-3.504,3.991-5.637,9.539-6.388,16.656H397.664z"/>
	<path fill="#007DB1" d="M434.057,161.722h-12.61l-0.649-2.263l27.813-31.047h1.294v20.538h21.022
		c0.431,1.833,0.648,3.879,0.648,6.143c0,1.187-0.056,2.319-0.165,3.396c-0.106,1.078-0.27,2.157-0.483,3.233h-21.022v37.84
		c0,4.528,0.188,8.141,0.567,10.833c0.377,2.698,1.024,4.775,1.939,6.229c0.914,1.454,2.156,2.425,3.72,2.91
		c1.561,0.484,3.528,0.727,5.904,0.727c1.83,0,3.556-0.133,5.172-0.401c1.619-0.269,3.072-0.568,4.368-0.891
		c0.751,2.158,1.212,4.368,1.373,6.63c0.161,2.264,0.241,4.259,0.241,5.983c-2.156,0.538-4.421,0.942-6.791,1.214
		c-2.371,0.268-4.903,0.404-7.599,0.404c-7.764,0-13.827-1.885-18.194-5.661c-4.367-3.773-6.549-10.026-6.549-18.758V161.722z"/>
	<path fill="#007DB1" d="M531.25,177.247c0-6.358-1.618-10.779-4.854-13.258c-3.233-2.48-7.924-3.721-14.066-3.721
		c-3.776,0-7.309,0.297-10.597,0.89c-3.286,0.593-6.491,1.374-9.619,2.344c-2.048-3.559-3.071-7.814-3.071-12.775
		c3.663-1.185,7.706-2.104,12.131-2.752c4.416-0.648,8.672-0.966,12.77-0.966c10.783,0,18.976,2.454,24.584,7.356
		c5.603,4.905,8.406,12.752,8.406,23.531v51.909c-3.775,0.865-8.354,1.753-13.746,2.665c-5.392,0.915-10.886,1.375-16.492,1.375
		c-5.284,0-10.055-0.482-14.311-1.457c-4.262-0.965-7.873-2.531-10.838-4.687c-2.968-2.157-5.254-4.902-6.87-8.247
		c-1.618-3.341-2.425-7.385-2.425-12.128c0-4.634,0.939-8.703,2.829-12.209c1.883-3.5,4.446-6.412,7.682-8.733
		c3.23-2.317,6.951-4.042,11.155-5.173c4.207-1.133,8.628-1.697,13.26-1.697c3.45,0,6.283,0.078,8.491,0.242
		c2.21,0.16,4.068,0.351,5.581,0.565V177.247z M531.25,192.933c-1.618-0.214-3.668-0.427-6.146-0.648
		c-2.479-0.212-4.584-0.322-6.307-0.322c-6.688,0-11.778,1.242-15.282,3.718c-3.505,2.482-5.257,6.254-5.257,11.319
		c0,3.235,0.594,5.773,1.781,7.601c1.183,1.835,2.669,3.235,4.445,4.205c1.782,0.972,3.745,1.566,5.904,1.781
		c2.157,0.216,4.204,0.322,6.144,0.322c2.479,0,5.039-0.134,7.68-0.404c2.642-0.269,4.988-0.674,7.038-1.212V192.933z"/>
	<path fill="#007DB1" d="M607.756,177.247c0-6.358-1.62-10.779-4.853-13.258c-3.234-2.48-7.924-3.721-14.069-3.721
		c-3.775,0-7.306,0.297-10.594,0.89c-3.289,0.593-6.495,1.374-9.621,2.344c-2.047-3.559-3.07-7.814-3.07-12.775
		c3.659-1.185,7.704-2.104,12.126-2.752c4.418-0.648,8.678-0.966,12.772-0.966c10.782,0,18.974,2.454,24.583,7.356
		c5.605,4.905,8.41,12.752,8.41,23.531v51.909c-3.776,0.865-8.354,1.753-13.747,2.665c-5.391,0.915-10.889,1.375-16.495,1.375
		c-5.28,0-10.053-0.482-14.311-1.457c-4.26-0.965-7.869-2.531-10.836-4.687c-2.964-2.157-5.252-4.902-6.87-8.247
		c-1.617-3.341-2.426-7.385-2.426-12.128c0-4.634,0.943-8.703,2.831-12.209c1.883-3.5,4.445-6.412,7.679-8.733
		c3.237-2.317,6.953-4.042,11.16-5.173c4.204-1.133,8.621-1.697,13.259-1.697c3.448,0,6.28,0.078,8.489,0.242
		c2.211,0.16,4.07,0.351,5.582,0.565V177.247z M607.756,192.933c-1.62-0.214-3.669-0.427-6.146-0.648
		c-2.481-0.212-4.584-0.322-6.308-0.322c-6.685,0-11.78,1.242-15.28,3.718c-3.506,2.482-5.258,6.254-5.258,11.319
		c0,3.235,0.594,5.773,1.78,7.601c1.186,1.835,2.666,3.235,4.448,4.205c1.78,0.972,3.743,1.566,5.899,1.781
		c2.155,0.216,4.204,0.322,6.145,0.322c2.481,0,5.038-0.134,7.684-0.404c2.64-0.269,4.983-0.674,7.036-1.212V192.933z"/>
	<path fill="#007DB1" d="M628.861,252.104l43.662-89.898h-38.487c-0.324-1.938-0.481-4.093-0.481-6.465
		c0-2.263,0.157-4.369,0.481-6.307h62.257l0.808,2.101l-43.98,90.057h44.784c0.324,2.155,0.486,4.366,0.486,6.63
		c0,2.156-0.162,4.207-0.486,6.146H629.67L628.861,252.104z"/>
	<path fill="#007DB1" d="M749.811,177.247c0-6.358-1.618-10.779-4.851-13.258c-3.235-2.48-7.929-3.721-14.071-3.721
		c-3.773,0-7.306,0.297-10.593,0.89c-3.29,0.593-6.494,1.374-9.621,2.344c-2.049-3.559-3.07-7.814-3.07-12.775
		c3.662-1.185,7.704-2.104,12.127-2.752c4.418-0.648,8.677-0.966,12.773-0.966c10.778,0,18.974,2.454,24.583,7.356
		c5.603,4.905,8.404,12.752,8.404,23.531v51.909c-3.771,0.865-8.354,1.753-13.744,2.665c-5.393,0.915-10.888,1.375-16.492,1.375
		c-5.285,0-10.054-0.482-14.312-1.457c-4.262-0.965-7.872-2.531-10.836-4.687c-2.964-2.157-5.256-4.902-6.87-8.247
		c-1.62-3.341-2.425-7.385-2.425-12.128c0-4.634,0.938-8.703,2.827-12.209c1.885-3.5,4.45-6.412,7.684-8.733
		c3.234-2.317,6.951-4.042,11.157-5.173c4.207-1.133,8.623-1.697,13.26-1.697c3.449,0,6.278,0.078,8.488,0.242
		c2.207,0.16,4.067,0.351,5.582,0.565V177.247z M749.811,192.933c-1.618-0.214-3.667-0.427-6.148-0.648
		c-2.478-0.212-4.582-0.322-6.307-0.322c-6.685,0-11.776,1.242-15.279,3.718c-3.505,2.482-5.258,6.254-5.258,11.319
		c0,3.235,0.592,5.773,1.782,7.601c1.184,1.835,2.667,3.235,4.445,4.205c1.776,0.972,3.745,1.566,5.903,1.781
		c2.154,0.216,4.202,0.322,6.146,0.322c2.475,0,5.037-0.134,7.681-0.404c2.641-0.269,4.984-0.674,7.034-1.212V192.933z"/>
	<path fill="#007DB1" d="M749.811,177.247c0-6.358-1.618-10.779-4.851-13.258c-3.235-2.48-7.925-3.721-14.071-3.721
		c-3.773,0-7.305,0.297-10.593,0.89c-3.29,0.593-6.495,1.374-9.621,2.344c-2.049-3.559-3.07-7.814-3.07-12.775
		c3.662-1.185,7.706-2.104,12.127-2.752c4.418-0.648,8.677-0.966,12.773-0.966c10.78,0,18.976,2.454,24.581,7.356
		c5.604,4.905,8.408,12.752,8.408,23.531v51.909c-3.772,0.865-8.356,1.753-13.746,2.665c-5.393,0.915-10.888,1.375-16.492,1.375
		c-5.285,0-10.054-0.482-14.312-1.457c-4.262-0.965-7.872-2.531-10.836-4.687c-2.964-2.157-5.256-4.902-6.87-8.247
		c-1.62-3.341-2.425-7.385-2.425-12.128c0-4.634,0.939-8.703,2.827-12.209c1.885-3.5,4.45-6.412,7.684-8.733
		c3.234-2.317,6.951-4.042,11.157-5.173c4.204-1.133,8.623-1.697,13.259-1.697c3.45,0,6.279,0.078,8.489,0.242
		c2.207,0.16,4.067,0.351,5.582,0.565V177.247z M749.811,192.933c-1.618-0.214-3.67-0.427-6.146-0.648
		c-2.481-0.212-4.584-0.322-6.309-0.322c-6.684,0-11.776,1.242-15.279,3.718c-3.505,2.482-5.258,6.254-5.258,11.319
		c0,3.235,0.592,5.773,1.782,7.601c1.184,1.835,2.667,3.235,4.446,4.205c1.775,0.972,3.744,1.566,5.902,1.781
		c2.154,0.216,4.202,0.322,6.146,0.322c2.476,0,5.038-0.134,7.682-0.404c2.641-0.269,4.982-0.674,7.034-1.212V192.933z"/>
</g>
<g>
	
		<linearGradient id="SVGID_1_" gradientUnits="userSpaceOnUse" x1="-10.3618" y1="-109.3872" x2="67.4048" y2="-109.3872" gradientTransform="matrix(0.9809 0.1947 -0.1947 0.9809 2.7725 169.1152)">
		<stop  offset="0" style="stop-color:#619F43"/>
		<stop  offset="1" style="stop-color:#EFE932"/>
	</linearGradient>
	<path fill="url(#SVGID_1_)" d="M7.953,89.798c0,0,61.486-6.179,66.56-32.258c5.075-26.082,20.975-9.297,20.975-9.297l-17.467-4.884
		c0,0-25.227-9.082-38.378,3.939C26.494,60.317,7.953,89.798,7.953,89.798z"/>
	<g>
		<linearGradient id="SVGID_2_" gradientUnits="userSpaceOnUse" x1="26.0947" y1="196.0322" x2="224.6802" y2="196.0322">
			<stop  offset="0" style="stop-color:#4588AA"/>
			<stop  offset="0.7485" style="stop-color:#82CAD0"/>
		</linearGradient>
		<path fill="url(#SVGID_2_)" d="M182.463,275.607c-20.056-1.348-6.996-37.496-33.284-83.936
			c-34.555-61.051-106.942-62.985-106.942-62.985l-0.076-12.229c0,0,116.745,1.668,144.464,59.992
			c27.721,58.329,30.762,92.535,54.122,99.158H182.463z"/>
		<linearGradient id="SVGID_3_" gradientUnits="userSpaceOnUse" x1="37.8345" y1="131.7349" x2="198.8395" y2="292.7398">
			<stop  offset="0" style="stop-color:#619F43"/>
			<stop  offset="0.6503" style="stop-color:#C1D82F"/>
			<stop  offset="1" style="stop-color:#EFE932"/>
		</linearGradient>
		<path fill="url(#SVGID_3_)" d="M163.021,250.599c-2.441-14.51-5.783-34.379-18.25-56.41
			c-13.659-24.129-34.903-41.535-63.148-51.73c-20.512-7.406-37.494-8.112-39.461-8.16v15.282
			c31.359,11.877,53.304,29.047,65.781,51.094c13.131,23.202,16.604,43.842,19.138,58.912c1.111,6.596,2.959,12,4.392,16.021h39.69
			c-1.324-1.456-3.134-3.182-4.068-5.244C164.814,265.314,164.401,258.802,163.021,250.599z"/>
		<linearGradient id="SVGID_4_" gradientUnits="userSpaceOnUse" x1="12.7759" y1="156.6772" x2="174.4621" y2="318.3634">
			<stop  offset="0" style="stop-color:#619F43"/>
			<stop  offset="1" style="stop-color:#EFE932"/>
		</linearGradient>
		<path fill="url(#SVGID_4_)" d="M103.533,203.195c-11.64-20.564-32.089-36.74-61.371-48.149v19.797
			c5.347,5.589,11.406,13.06,15.055,19.504c13.133,23.203,16.604,43.841,19.138,58.914c1.695,10.083,3.035,18.876,6.603,22.345
			h42.887c-1.259-4.153-2.759-9.198-3.765-15.172C119.607,245.739,116.222,225.613,103.533,203.195z"/>
		<linearGradient id="SVGID_5_" gradientUnits="userSpaceOnUse" x1="-8.8247" y1="178.2075" x2="152.7275" y2="339.7598">
			<stop  offset="0" style="stop-color:#619F43"/>
			<stop  offset="1" style="stop-color:#EFE932"/>
		</linearGradient>
		<path fill="url(#SVGID_5_)" d="M52.808,196.867c-2.568-4.536-6.632-9.866-10.646-14.085v92.826h35.017
			c-3.025-4.859-4.249-12.105-5.827-21.497C68.88,239.413,65.496,219.287,52.808,196.867z"/>
	</g>
	<g>
		<linearGradient id="SVGID_6_" gradientUnits="userSpaceOnUse" x1="41.4902" y1="87.5488" x2="203.7045" y2="87.5488">
			<stop  offset="0" style="stop-color:#FAB317"/>
			<stop  offset="1" style="stop-color:#FEEB74"/>
		</linearGradient>
		<path fill="url(#SVGID_6_)" d="M103.476,120.042c19.785,4.554,36.819,10.707,50.627,18.286c7.973,4.377,14.877,9.246,20.702,14.57
			c6.023-5.902,15.478-16.151,20.879-27.006c10.938-21.98,13.804-63.069-11.718-85.613c-25.523-22.544-50.971-20.617-68.394-12.376
			c-15.373,7.273-20.017,17.392-20.898,19.673c1.511,1.209,2.458,2.272,2.458,2.272l-9.103-2.147
			c-2.451,0.016-5.305-0.055-8.642,1.04c-1.591,2.508-2.078,5.912-3.102,11.238c-2.396,12.454-16.632,21.209-30.952,26.787
			c-1.572,4.159-2.726,8.409-3.059,12.309v12.462C49.871,112.182,75.25,113.544,103.476,120.042z"/>
	</g>
</g>
</svg>
