 <svg width="244" height="44" viewBox="0 0 244 44" fill="none" xmlns="http://www.w3.org/2000/svg">
  <path d="M37.5795 38.3628C33.1969 42.8356 27.1978 44.6467 21.504 43.7961C19.9701 43.5688 19.9809 41.3031 21.5148 41.0758C22.8439 40.8778 24.1551 40.5112 25.4124 39.9723C25.9297 39.7523 25.6603 38.9567 25.1178 39.107C23.4654 39.569 21.7195 39.8036 19.9162 39.7853C18.1308 39.7669 16.4029 39.4956 14.7684 39.0007C13.1591 38.5168 13.7051 36.0714 15.3648 36.328C16.3383 36.4783 17.3405 36.5517 18.3571 36.5443C19.6216 36.5333 20.8538 36.3977 22.0464 36.1447C22.5745 36.0311 22.4919 35.2318 21.9494 35.2391C19.733 35.2648 17.477 34.9788 15.239 34.3482C13.8237 33.9486 12.473 33.428 11.1905 32.8011C9.16087 31.8075 10.5295 28.6949 12.6167 29.5528C13.5219 29.9268 14.4595 30.2457 15.4258 30.5097C16.9094 30.9166 18.4002 31.1733 19.8767 31.2869C20.3113 31.3199 20.4407 30.6967 20.0311 30.5464C17.2256 29.5198 14.5601 27.98 12.1748 25.9196C11.2839 25.1497 11.2372 23.7638 12.0634 22.9206L12.0778 22.9059C12.825 22.1397 14.0248 22.1103 14.8223 22.8216C21.8237 29.0725 30.5961 30.5757 35.0361 26.0442C37.2741 23.7601 38.007 20.3542 37.4035 16.622C37.0766 14.5982 39.7744 13.645 40.7479 15.4415C43.0254 19.6466 43.7726 24.7207 42.4578 29.7288C41.5669 33.1164 39.8462 36.0494 37.5795 38.3591V38.3628ZM5.52548 5.63793C3.25874 7.94766 1.53444 10.8806 0.647145 14.2683C-0.667634 19.2763 0.0795629 24.3504 2.35707 28.5556C3.33059 30.352 6.0284 29.3988 5.7015 27.3751C5.09799 23.6428 5.83441 20.2369 8.06882 17.9528C12.5053 13.4214 21.2813 14.9245 28.2826 21.1754C29.0801 21.8867 30.2764 21.8574 31.0271 21.0911L31.0415 21.0765C31.8677 20.2332 31.821 18.8474 30.9302 18.0775C28.5449 16.0207 25.8794 14.4772 23.0738 13.4507C22.6643 13.3004 22.7972 12.6771 23.2283 12.7101C24.7083 12.8238 26.1955 13.0804 27.6791 13.4873C28.6455 13.7513 29.583 14.0739 30.4883 14.4442C32.5754 15.3021 33.9405 12.1895 31.9144 11.1959C30.6356 10.569 29.2813 10.0484 27.8659 9.64879C25.6279 9.0182 23.372 8.72857 21.1555 8.7579C20.6167 8.76523 20.5305 7.96232 21.0585 7.85234C22.2512 7.59937 23.4869 7.46005 24.7478 7.45272C25.7644 7.44538 26.7631 7.51871 27.7402 7.66902C29.3998 7.92566 29.9459 5.48028 28.3365 4.99634C26.702 4.50506 24.9741 4.23009 23.1888 4.21176C21.3854 4.19343 19.6432 4.42807 17.9871 4.89001C17.4447 5.04033 17.1753 4.24842 17.6926 4.02478C18.9499 3.48584 20.261 3.11922 21.5902 2.92124C23.1241 2.69394 23.1349 0.431867 21.601 0.200894C15.9108 -0.642341 9.90807 1.16878 5.52907 5.63793H5.52548Z" fill="#00B45A" />
  <path d="M71.7645 10.4441C69.8319 9.25995 67.5723 8.66602 64.993 8.66602C62.4138 8.66602 60.1111 9.25628 58.1533 10.4441C56.1955 11.6283 54.6939 13.2378 53.6522 15.2726C52.6104 17.3073 52.0859 19.5547 52.0859 22.0221C52.0859 24.4895 52.614 26.7296 53.6701 28.7533C54.7263 30.7771 56.2386 32.3793 58.2072 33.5634C60.1758 34.7476 62.4748 35.3416 65.1008 35.3416C67.7268 35.3416 69.9253 34.744 71.8363 33.5451C73.7474 32.3499 75.2059 30.7404 76.2154 28.7167C77.2248 26.6966 77.7277 24.4528 77.7277 21.9855C77.7277 19.5181 77.2176 17.278 76.1974 15.2542C75.1772 13.2341 73.7008 11.6283 71.7645 10.4441ZM72.3644 27.0999C71.6963 28.6434 70.7335 29.8715 69.4798 30.7771C68.2261 31.6863 66.7676 32.1409 65.1008 32.1409C63.434 32.1409 61.8821 31.6937 60.5817 30.7954C59.2813 29.8972 58.2647 28.6764 57.539 27.1329C56.8134 25.5894 56.447 23.8846 56.447 22.0185C56.447 20.1523 56.799 18.4475 57.5031 16.9041C58.2072 15.3606 59.2023 14.136 60.4919 13.2232C61.7815 12.3139 63.2831 11.8593 64.993 11.8593C66.703 11.8593 68.1291 12.3139 69.408 13.2232C70.6868 14.1324 71.6639 15.3606 72.3429 16.9041C73.0218 18.4475 73.3631 20.1413 73.3631 21.9818C73.3631 23.8222 73.029 25.5527 72.3608 27.0962L72.3644 27.0999Z" fill="#003C1E" />
  <path d="M116.254 31.1688C115.212 32.0084 113.904 32.4263 112.331 32.4263C110.617 32.4263 109.202 31.8324 108.074 30.6482C106.993 29.508 106.436 27.8619 106.393 25.7135H121.333C121.355 23.4881 121.028 21.5559 120.349 19.9171C119.67 18.2783 118.642 17.0171 117.27 16.1299C115.898 15.2464 114.253 14.8027 112.331 14.8027C110.409 14.8027 108.703 15.2647 107.215 16.1849C105.725 17.1051 104.564 18.381 103.734 20.0088C102.901 21.6366 102.484 23.5027 102.484 25.6071C102.484 27.7116 102.923 29.4237 103.803 30.8829C104.683 32.342 105.865 33.4492 107.356 34.2045C108.843 34.9597 110.502 35.3337 112.331 35.3337C114.253 35.3337 116.006 34.8901 117.59 34.0065C119.174 33.1229 120.525 31.8287 121.653 30.1313L118.488 27.9792C118.043 29.2697 117.299 30.3366 116.254 31.1725V31.1688ZM109.202 18.623C110.093 17.9887 111.135 17.6734 112.331 17.6734C113.409 17.6734 114.346 17.9557 115.144 18.5166C115.941 19.0776 116.534 19.8401 116.918 20.797C117.17 21.424 117.338 22.1059 117.428 22.8428H106.655C106.774 22.3075 106.928 21.8053 107.126 21.336C107.618 20.1628 108.311 19.2609 109.202 18.6266V18.623Z" fill="#003C1E" />
  <path d="M143.032 21.479C143.032 20.1884 142.784 19.0372 142.292 18.0327C141.799 17.0281 141.059 16.2362 140.075 15.6643C139.091 15.0887 137.869 14.8027 136.418 14.8027C135.269 14.8027 134.162 15.0557 133.095 15.558C132.028 16.0603 131.08 16.7605 130.247 17.6587C129.413 18.557 128.763 19.6018 128.296 20.8007V15.3087H124.531V34.8351H128.296V25.8968C128.296 24.3423 128.648 22.9528 129.352 21.7319C130.056 20.5111 130.936 19.5652 131.989 18.8979C133.045 18.227 134.098 17.8934 135.154 17.8934C136.562 17.8934 137.593 18.2527 138.25 18.9712C138.908 19.6898 139.234 20.742 139.234 22.1315V34.8387H143.208C143.089 33.4529 143.032 31.8947 143.032 30.1716V21.4863V21.479Z" fill="#003C1E" />
  <path d="M172.189 19.4701H158.718V9.16797H154.641V34.8316H158.718V22.6634H172.189V34.8316H176.27V9.16797H172.189V19.4701Z" fill="#003C1E" />
  <path d="M198.08 32.5327C197.753 32.5327 197.505 32.43 197.339 32.2284C197.174 32.0267 197.092 31.7188 197.092 31.3118V21.5853C197.092 20.2214 196.833 19.0299 196.319 18.0144C195.802 16.9988 195.005 16.2069 193.927 15.646C192.849 15.085 191.466 14.8027 189.778 14.8027C187.784 14.8027 185.92 15.2317 184.185 16.0933C182.449 16.9548 180.948 18.2233 179.683 19.8988L182.392 22.1975C183.211 20.7127 184.246 19.5945 185.489 18.8429C186.731 18.0877 188.057 17.7137 189.462 17.7137C190.751 17.7137 191.714 18.073 192.346 18.7916C192.978 19.5102 193.295 20.4927 193.295 21.7356V22.1425C190.611 22.3515 188.273 22.7511 186.297 23.3524C184.163 23.9977 182.503 24.8849 181.321 26.0104C180.136 27.136 179.547 28.4998 179.547 30.102C179.547 31.7041 180.111 32.9213 181.235 33.8892C182.36 34.8571 183.85 35.3447 185.7 35.3447C187.41 35.3447 188.919 34.9157 190.22 34.0542C191.52 33.1926 192.522 32.0561 193.226 30.6446C193.251 30.5932 193.273 30.5419 193.298 30.4942V31.3998C193.298 32.6427 193.621 33.6142 194.264 34.3071C194.908 35 195.784 35.3483 196.883 35.3483C197.257 35.3483 197.623 35.3043 197.975 35.2237C198.327 35.1394 198.701 35.0147 199.1 34.8461L199.592 32.1917C199.312 32.3347 199.057 32.43 198.837 32.4777C198.615 32.5253 198.363 32.551 198.08 32.551V32.5327ZM192.382 29.2294C191.771 30.2119 190.952 30.9782 189.921 31.5281C188.89 32.0781 187.813 32.353 186.685 32.353C185.747 32.353 184.986 32.1147 184.4 31.6344C183.815 31.1578 183.52 30.5089 183.52 29.695C183.52 28.2578 184.404 27.158 186.175 26.3917C187.834 25.6731 190.205 25.1782 193.295 24.8996V25.8528C193.295 27.1213 192.989 28.2468 192.382 29.2257V29.2294Z" fill="#003C1E" />
  <path d="M220.375 21.479C220.375 20.1884 220.127 19.0372 219.635 18.0327C219.143 17.0281 218.403 16.2362 217.419 15.6643C216.435 15.0887 215.213 14.8027 213.762 14.8027C212.612 14.8027 211.506 15.0557 210.439 15.558C209.372 16.0603 208.424 16.7605 207.59 17.6587C206.757 18.557 206.107 19.6018 205.64 20.8007V15.3087H201.875V34.8351H205.64V25.8968C205.64 24.3423 205.992 22.9528 206.696 21.7319C207.4 20.5111 208.28 19.5652 209.333 18.8979C210.389 18.227 211.441 17.8934 212.497 17.8934C213.906 17.8934 214.937 18.2527 215.594 18.9712C216.251 19.6898 216.578 20.742 216.578 22.1315V34.8387H220.551C220.433 33.4529 220.375 31.8947 220.375 30.1716V21.4863V21.479Z" fill="#003C1E" />
  <path d="M95.9655 15.9358C94.7334 15.1806 93.2749 14.8066 91.5865 14.8066C89.8981 14.8066 88.5079 15.2723 87.2793 16.2071C86.0472 17.142 85.1168 18.4326 84.4845 20.0824V15.3089H80.6875V41.8342H84.6965C84.5564 40.4447 84.4845 38.8902 84.4845 37.167V34.6557C85.1168 34.872 85.7347 35.0369 86.331 35.1579C86.9273 35.2789 87.5667 35.3376 88.2493 35.3376C90.5699 35.3376 92.6031 34.817 94.3526 33.7758C96.0984 32.7346 97.4419 31.3414 98.3795 29.5926C99.3171 27.8475 99.7877 25.93 99.7877 23.8513C99.7877 22.0805 99.4608 20.5076 98.8034 19.1328C98.146 17.758 97.2048 16.6911 95.9727 15.9395L95.9655 15.9358ZM94.7513 28.2837C94.0939 29.5633 93.1851 30.5751 92.0248 31.3157C90.8645 32.0563 89.5209 32.4303 87.9978 32.4303C86.6615 32.4303 85.4904 32.2139 84.481 31.785V25.864C84.481 24.3792 84.7432 23.041 85.2713 21.8422C85.7993 20.647 86.5429 19.7121 87.5057 19.0411C88.4684 18.3702 89.5461 18.0366 90.7423 18.0366C92.3373 18.0366 93.5659 18.5755 94.4352 19.6534C95.3009 20.7313 95.7356 22.1904 95.7356 24.0309C95.7356 25.5854 95.4051 27.0042 94.7513 28.2837Z" fill="#003C1E" />
  <path d="M242.921 30.1645V9.16797H239.123V15.4152C237.834 15.0083 236.638 14.803 235.535 14.803C233.121 14.803 231.026 15.3346 229.255 16.4015C227.484 17.4683 226.137 18.8835 225.211 20.6543C224.284 22.4251 223.82 24.3499 223.82 26.4323C223.82 28.2251 224.147 29.8016 224.805 31.1507C225.462 32.5036 226.392 33.5375 227.599 34.256C228.806 34.9746 230.207 35.3339 231.802 35.3339C233.512 35.3339 235.003 34.8683 236.268 33.9334C237.532 33.0022 238.484 31.708 239.116 30.0582V34.8316H243.125C242.985 33.4421 242.913 31.8877 242.913 30.1645H242.921ZM239.123 23.9539C239.123 25.5561 238.836 26.9822 238.261 28.2251C237.687 29.4679 236.914 30.4285 235.941 31.0957C234.967 31.7667 233.907 32.1003 232.758 32.1003C231.256 32.1003 230.067 31.5687 229.187 30.5018C228.307 29.4386 227.869 27.9831 227.869 26.1427C227.869 24.6358 228.192 23.2427 228.835 21.9595C229.478 20.68 230.394 19.6497 231.58 18.8725C232.765 18.0953 234.13 17.7066 235.678 17.7066C237.061 17.7066 238.211 17.9229 239.123 18.3519V23.9502V23.9539Z" fill="#003C1E" />
</svg>