<svg width="87" height="89" viewBox="0 0 87 89" fill="none" xmlns="http://www.w3.org/2000/svg">
<path d="M75.7413 77.32C66.9082 86.3349 54.817 89.9852 43.3412 88.2709C40.2496 87.8128 40.2713 83.2462 43.3629 82.7881C46.0418 82.389 48.6845 81.6501 51.2185 80.5639C52.2611 80.1205 51.7181 78.5171 50.6248 78.82C47.2943 79.7511 43.7756 80.224 40.141 80.187C36.5426 80.1501 33.06 79.6033 29.7657 78.6057C26.5221 77.6303 27.6226 72.7017 30.9676 73.2189C32.9297 73.5219 34.9497 73.6697 36.9987 73.6549C39.5473 73.6327 42.0307 73.3593 44.4344 72.8495C45.4988 72.6204 45.3322 71.0095 44.239 71.0243C39.7717 71.076 35.2249 70.4997 30.7142 69.2287C27.8615 68.4233 25.1392 67.374 22.5544 66.1104C18.4637 64.1079 21.2222 57.8344 25.4288 59.5635C27.2533 60.3172 29.1431 60.9601 31.0907 61.4921C34.0809 62.3123 37.0856 62.8296 40.0613 63.0587C40.9374 63.1252 41.1981 61.869 40.3727 61.566C34.718 59.497 29.3458 56.3935 24.5383 52.2407C22.7427 50.689 22.6486 47.8958 24.3138 46.1963L24.3428 46.1668C25.8487 44.6224 28.267 44.5633 29.8743 45.9968C43.9855 58.5955 61.6662 61.6251 70.6152 52.492C75.1258 47.8885 76.6028 41.0238 75.3865 33.5015C74.7276 29.4226 80.165 27.5014 82.1272 31.1222C86.7175 39.5977 88.2234 49.8245 85.5735 59.9182C83.7779 66.7459 80.3098 72.6573 75.7413 77.3126V77.32ZM11.1366 11.3632C6.56797 16.0185 3.09266 21.9299 1.30432 28.7576C-1.34561 38.8514 0.160359 49.0781 4.75067 57.5536C6.71278 61.1744 12.1502 59.2532 11.4913 55.1743C10.275 47.652 11.7592 40.7874 16.2627 36.1838C25.2044 27.0507 42.8923 30.0803 57.0035 42.679C58.6108 44.1125 61.0218 44.0534 62.5351 42.5091L62.564 42.4795C64.2293 40.78 64.1351 37.9868 62.3396 36.4351C57.532 32.2897 52.1598 29.1788 46.5052 27.1098C45.6798 26.8068 45.9477 25.5506 46.8165 25.6171C49.7995 25.8462 52.7969 26.3635 55.7871 27.1837C57.7348 27.7157 59.6245 28.366 61.449 29.1123C65.6556 30.8414 68.4069 24.5679 64.3234 22.5654C61.7459 21.3018 59.0163 20.2525 56.1636 19.4471C51.653 18.1761 47.1061 17.5924 42.6389 17.6515C41.5528 17.6663 41.3791 16.048 42.4434 15.8263C44.8471 15.3165 47.3378 15.0357 49.8791 15.0209C51.9281 15.0061 53.9409 15.1539 55.9102 15.4569C59.2552 15.9741 60.3557 11.0455 57.1121 10.0701C53.8178 9.07992 50.3352 8.52573 46.7368 8.48878C43.1022 8.45183 39.5907 8.92475 36.253 9.8558C35.1597 10.1588 34.6167 8.56267 35.6593 8.11193C38.1934 7.0257 40.836 6.28677 43.5149 5.88775C46.6065 5.42962 46.6282 0.870426 43.5367 0.404901C32.0681 -1.29463 19.9697 2.35567 11.1438 11.3632H11.1366Z" fill="#00B45A"/>
</svg>
